<?xml version="1.0" encoding="UTF-8" standalone="no"?>
<!DOCTYPE svg PUBLIC "-//W3C//DTD SVG 1.1//EN"
 "http://www.w3.org/Graphics/SVG/1.1/DTD/svg11.dtd">
<!-- Generated by graphviz version 2.47.0 (20210316.0004)
 -->
<!-- Title: dependencies Pages: 1 -->
<svg width="577pt" height="284pt"
 viewBox="0.00 0.00 577.00 284.00" xmlns="http://www.w3.org/2000/svg" xmlns:xlink="http://www.w3.org/1999/xlink">
<g id="graph0" class="graph" transform="scale(1 1) rotate(0) translate(4 280)">
<title>dependencies</title>
<polygon fill="white" stroke="transparent" points="-4,4 -4,-280 573,-280 573,4 -4,4"/>
<text text-anchor="start" x="263.51" y="-42.4" font-family="Times-12" font-weight="bold" font-size="14.00">Legend</text>
<polygon fill="#ffffb3" stroke="transparent" points="50.5,-10 50.5,-30 70.5,-30 70.5,-10 50.5,-10"/>
<text text-anchor="start" x="74.13" y="-15.4" font-family="Times-12" font-size="14.00"> &#160;Declarations</text>
<polygon fill="#8dd3c7" stroke="transparent" points="163.5,-10 163.5,-30 183.5,-30 183.5,-10 163.5,-10"/>
<text text-anchor="start" x="187.23" y="-15.4" font-family="Times-12" font-size="14.00"> &#160;Module</text>
<polygon fill="#80b1d3" stroke="transparent" points="249.5,-10 249.5,-30 269.5,-30 269.5,-10 249.5,-10"/>
<text text-anchor="start" x="273.28" y="-15.4" font-family="Times-12" font-size="14.00"> &#160;Bootstrap</text>
<polygon fill="#fdb462" stroke="transparent" points="346.5,-10 346.5,-30 366.5,-30 366.5,-10 346.5,-10"/>
<text text-anchor="start" x="370.17" y="-15.4" font-family="Times-12" font-size="14.00"> &#160;Providers</text>
<polygon fill="#fb8072" stroke="transparent" points="442.5,-10 442.5,-30 462.5,-30 462.5,-10 442.5,-10"/>
<text text-anchor="start" x="466.23" y="-15.4" font-family="Times-12" font-size="14.00"> &#160;Exports</text>
<g id="clust1" class="cluster">
<title>cluster_MaterialModule</title>
<polygon fill="none" stroke="black" stroke-dasharray="1,5" points="8,-70 8,-268 561,-268 561,-70 8,-70"/>
</g>
<g id="clust3" class="cluster">
<title>cluster_MaterialModule_imports</title>
<polygon fill="none" stroke="black" points="24,-78 24,-130 547,-130 547,-78 24,-78"/>
</g>
<g id="clust4" class="cluster">
<title>cluster_MaterialModule_exports</title>
<polygon fill="none" stroke="black" points="16,-208 16,-260 553,-260 553,-208 16,-208"/>
</g>
<!-- MatDialogActions -->
<g id="node1" class="node">
<title>MatDialogActions</title>
<polygon fill="#8dd3c7" stroke="black" points="539.2,-122 536.2,-126 515.2,-126 512.2,-122 418.8,-122 418.8,-86 539.2,-86 539.2,-122"/>
<text text-anchor="middle" x="479" y="-99.8" font-family="Times,serif" font-size="14.00">MatDialogActions</text>
</g>
<!-- MaterialModule -->
<g id="node5" class="node">
<title>MaterialModule</title>
<polygon fill="#8dd3c7" stroke="black" points="269.47,-187 266.47,-191 245.47,-191 242.47,-187 162.53,-187 162.53,-151 269.47,-151 269.47,-187"/>
<text text-anchor="middle" x="216" y="-164.8" font-family="Times,serif" font-size="14.00">MaterialModule</text>
</g>
<!-- MatDialogActions&#45;&gt;MaterialModule -->
<g id="edge1" class="edge">
<title>MatDialogActions&#45;&gt;MaterialModule</title>
<path fill="none" stroke="black" d="M499.78,-122.27C499.78,-140.56 499.78,-166 499.78,-166 499.78,-166 279.71,-166 279.71,-166"/>
<polygon fill="black" stroke="black" points="279.71,-162.5 269.71,-166 279.71,-169.5 279.71,-162.5"/>
</g>
<!-- MatDialogClose -->
<g id="node2" class="node">
<title>MatDialogClose</title>
<polygon fill="#8dd3c7" stroke="black" points="401.04,-122 398.04,-126 377.04,-126 374.04,-122 292.96,-122 292.96,-86 401.04,-86 401.04,-122"/>
<text text-anchor="middle" x="347" y="-99.8" font-family="Times,serif" font-size="14.00">MatDialogClose</text>
</g>
<!-- MatDialogClose&#45;&gt;MaterialModule -->
<g id="edge2" class="edge">
<title>MatDialogClose&#45;&gt;MaterialModule</title>
<path fill="none" stroke="black" d="M365.09,-122.01C365.09,-138.05 365.09,-159 365.09,-159 365.09,-159 279.82,-159 279.82,-159"/>
<polygon fill="black" stroke="black" points="279.82,-155.5 269.82,-159 279.82,-162.5 279.82,-155.5"/>
</g>
<!-- MatDialogContent -->
<g id="node3" class="node">
<title>MatDialogContent</title>
<polygon fill="#8dd3c7" stroke="black" points="274.48,-122 271.48,-126 250.48,-126 247.48,-122 153.52,-122 153.52,-86 274.48,-86 274.48,-122"/>
<text text-anchor="middle" x="214" y="-99.8" font-family="Times,serif" font-size="14.00">MatDialogContent</text>
</g>
<!-- MatDialogContent&#45;&gt;MaterialModule -->
<g id="edge3" class="edge">
<title>MatDialogContent&#45;&gt;MaterialModule</title>
<path fill="none" stroke="black" d="M216,-122.11C216,-122.11 216,-140.99 216,-140.99"/>
<polygon fill="black" stroke="black" points="212.5,-140.99 216,-150.99 219.5,-140.99 212.5,-140.99"/>
</g>
<!-- MatDialogTitle -->
<g id="node4" class="node">
<title>MatDialogTitle</title>
<polygon fill="#8dd3c7" stroke="black" points="135.59,-122 132.59,-126 111.59,-126 108.59,-122 32.41,-122 32.41,-86 135.59,-86 135.59,-122"/>
<text text-anchor="middle" x="84" y="-99.8" font-family="Times,serif" font-size="14.00">MatDialogTitle</text>
</g>
<!-- MatDialogTitle&#45;&gt;MaterialModule -->
<g id="edge4" class="edge">
<title>MatDialogTitle&#45;&gt;MaterialModule</title>
<path fill="none" stroke="black" d="M97.68,-122.02C97.68,-139.37 97.68,-163 97.68,-163 97.68,-163 152.38,-163 152.38,-163"/>
<polygon fill="black" stroke="black" points="152.38,-166.5 162.38,-163 152.38,-159.5 152.38,-166.5"/>
</g>
<!-- MatDialogActions  -->
<g id="node6" class="node">
<title>MatDialogActions </title>
<polygon fill="#fb8072" stroke="black" points="544.7,-252 421.3,-252 421.3,-216 544.7,-216 544.7,-252"/>
<text text-anchor="middle" x="483" y="-229.8" font-family="Times,serif" font-size="14.00">MatDialogActions </text>
</g>
<!-- MaterialModule&#45;&gt;MatDialogActions  -->
<g id="edge5" class="edge">
<title>MaterialModule&#45;&gt;MatDialogActions </title>
<path fill="none" stroke="black" stroke-dasharray="5,2" d="M269.65,-173C341.61,-173 460.47,-173 460.47,-173 460.47,-173 460.47,-205.7 460.47,-205.7"/>
<polygon fill="black" stroke="black" points="456.97,-205.7 460.47,-215.7 463.97,-205.7 456.97,-205.7"/>
</g>
<!-- MatDialogClose  -->
<g id="node7" class="node">
<title>MatDialogClose </title>
<polygon fill="#fb8072" stroke="black" points="403.04,-252 290.96,-252 290.96,-216 403.04,-216 403.04,-252"/>
<text text-anchor="middle" x="347" y="-229.8" font-family="Times,serif" font-size="14.00">MatDialogClose </text>
</g>
<!-- MaterialModule&#45;&gt;MatDialogClose  -->
<g id="edge6" class="edge">
<title>MaterialModule&#45;&gt;MatDialogClose </title>
<path fill="none" stroke="black" stroke-dasharray="5,2" d="M269.48,-180C298.66,-180 328.91,-180 328.91,-180 328.91,-180 328.91,-205.72 328.91,-205.72"/>
<polygon fill="black" stroke="black" points="325.41,-205.72 328.91,-215.72 332.41,-205.72 325.41,-205.72"/>
</g>
<!-- MatDialogContent  -->
<g id="node8" class="node">
<title>MatDialogContent </title>
<polygon fill="#fb8072" stroke="black" points="273.49,-252 148.51,-252 148.51,-216 273.49,-216 273.49,-252"/>
<text text-anchor="middle" x="211" y="-229.8" font-family="Times,serif" font-size="14.00">MatDialogContent </text>
</g>
<!-- MaterialModule&#45;&gt;MatDialogContent  -->
<g id="edge7" class="edge">
<title>MaterialModule&#45;&gt;MatDialogContent </title>
<path fill="none" stroke="black" stroke-dasharray="5,2" d="M216,-187.11C216,-187.11 216,-205.99 216,-205.99"/>
<polygon fill="black" stroke="black" points="212.5,-205.99 216,-215.99 219.5,-205.99 212.5,-205.99"/>
</g>
<!-- MatDialogTitle  -->
<g id="node9" class="node">
<title>MatDialogTitle </title>
<polygon fill="#fb8072" stroke="black" points="130.09,-252 23.91,-252 23.91,-216 130.09,-216 130.09,-252"/>
<text text-anchor="middle" x="77" y="-229.8" font-family="Times,serif" font-size="14.00">MatDialogTitle </text>
</g>
<!-- MaterialModule&#45;&gt;MatDialogTitle  -->
<g id="edge8" class="edge">
<title>MaterialModule&#45;&gt;MatDialogTitle </title>
<path fill="none" stroke="black" stroke-dasharray="5,2" d="M162.36,-175C118.98,-175 65.07,-175 65.07,-175 65.07,-175 65.07,-205.98 65.07,-205.98"/>
<polygon fill="black" stroke="black" points="61.57,-205.98 65.07,-215.98 68.57,-205.98 61.57,-205.98"/>
</g>
</g>
</svg>
