<?xml version="1.0" encoding="UTF-8" standalone="no"?>
<!DOCTYPE svg PUBLIC "-//W3C//DTD SVG 1.1//EN"
 "http://www.w3.org/Graphics/SVG/1.1/DTD/svg11.dtd">
<!-- Generated by graphviz version 2.47.0 (20210316.0004)
 -->
<!-- Title: dependencies Pages: 1 -->
<svg width="1803pt" height="284pt"
 viewBox="0.00 0.00 1803.00 284.00" xmlns="http://www.w3.org/2000/svg" xmlns:xlink="http://www.w3.org/1999/xlink">
<g id="graph0" class="graph" transform="scale(1 1) rotate(0) translate(4 280)">
<title>dependencies</title>
<polygon fill="white" stroke="transparent" points="-4,4 -4,-280 1799,-280 1799,4 -4,4"/>
<text text-anchor="start" x="876.51" y="-42.4" font-family="Times-12" font-weight="bold" font-size="14.00">Legend</text>
<polygon fill="#ffffb3" stroke="transparent" points="663.5,-10 663.5,-30 683.5,-30 683.5,-10 663.5,-10"/>
<text text-anchor="start" x="687.13" y="-15.4" font-family="Times-12" font-size="14.00"> &#160;Declarations</text>
<polygon fill="#8dd3c7" stroke="transparent" points="776.5,-10 776.5,-30 796.5,-30 796.5,-10 776.5,-10"/>
<text text-anchor="start" x="800.23" y="-15.4" font-family="Times-12" font-size="14.00"> &#160;Module</text>
<polygon fill="#80b1d3" stroke="transparent" points="862.5,-10 862.5,-30 882.5,-30 882.5,-10 862.5,-10"/>
<text text-anchor="start" x="886.28" y="-15.4" font-family="Times-12" font-size="14.00"> &#160;Bootstrap</text>
<polygon fill="#fdb462" stroke="transparent" points="959.5,-10 959.5,-30 979.5,-30 979.5,-10 959.5,-10"/>
<text text-anchor="start" x="983.17" y="-15.4" font-family="Times-12" font-size="14.00"> &#160;Providers</text>
<polygon fill="#fb8072" stroke="transparent" points="1055.5,-10 1055.5,-30 1075.5,-30 1075.5,-10 1055.5,-10"/>
<text text-anchor="start" x="1079.23" y="-15.4" font-family="Times-12" font-size="14.00"> &#160;Exports</text>
<g id="clust1" class="cluster">
<title>cluster_AppModule</title>
<polygon fill="none" stroke="black" stroke-dasharray="1,5" points="8,-70 8,-268 1787,-268 1787,-70 8,-70"/>
</g>
<g id="clust2" class="cluster">
<title>cluster_AppModule_declarations</title>
<polygon fill="none" stroke="black" points="293,-78 293,-130 1779,-130 1779,-78 293,-78"/>
</g>
<g id="clust14" class="cluster">
<title>cluster_AppModule_bootstrap</title>
<polygon fill="none" stroke="black" points="820,-208 820,-260 944,-260 944,-208 820,-208"/>
</g>
<g id="clust12" class="cluster">
<title>cluster_AppModule_imports</title>
<polygon fill="none" stroke="black" points="16,-78 16,-130 285,-130 285,-78 16,-78"/>
</g>
<!-- AddHeroComponent -->
<g id="node1" class="node">
<title>AddHeroComponent</title>
<polygon fill="#ffffb3" stroke="black" points="1770.92,-122 1637.08,-122 1637.08,-86 1770.92,-86 1770.92,-122"/>
<text text-anchor="middle" x="1704" y="-99.8" font-family="Times,serif" font-size="14.00">AddHeroComponent</text>
</g>
<!-- AppModule -->
<g id="node10" class="node">
<title>AppModule</title>
<polygon fill="#8dd3c7" stroke="black" points="923.66,-187 920.66,-191 899.66,-191 896.66,-187 840.34,-187 840.34,-151 923.66,-151 923.66,-187"/>
<text text-anchor="middle" x="882" y="-164.8" font-family="Times,serif" font-size="14.00">AppModule</text>
</g>
<!-- AddHeroComponent&#45;&gt;AppModule -->
<g id="edge1" class="edge">
<title>AddHeroComponent&#45;&gt;AppModule</title>
<path fill="none" stroke="black" d="M1704,-122.25C1704,-145.02 1704,-181 1704,-181 1704,-181 933.89,-181 933.89,-181"/>
<polygon fill="black" stroke="black" points="933.89,-177.5 923.89,-181 933.89,-184.5 933.89,-177.5"/>
</g>
<!-- AppComponent -->
<g id="node2" class="node">
<title>AppComponent</title>
<polygon fill="#ffffb3" stroke="black" points="1619.94,-122 1514.06,-122 1514.06,-86 1619.94,-86 1619.94,-122"/>
<text text-anchor="middle" x="1567" y="-99.8" font-family="Times,serif" font-size="14.00">AppComponent</text>
</g>
<!-- AppComponent&#45;&gt;AppModule -->
<g id="edge2" class="edge">
<title>AppComponent&#45;&gt;AppModule</title>
<path fill="none" stroke="black" d="M1567,-122.28C1567,-143.32 1567,-175 1567,-175 1567,-175 933.82,-175 933.82,-175"/>
<polygon fill="black" stroke="black" points="933.82,-171.5 923.82,-175 933.82,-178.5 933.82,-171.5"/>
</g>
<!-- DeleteHeroDialogComponent -->
<g id="node3" class="node">
<title>DeleteHeroDialogComponent</title>
<polygon fill="#ffffb3" stroke="black" points="1495.95,-122 1312.05,-122 1312.05,-86 1495.95,-86 1495.95,-122"/>
<text text-anchor="middle" x="1404" y="-99.8" font-family="Times,serif" font-size="14.00">DeleteHeroDialogComponent</text>
</g>
<!-- DeleteHeroDialogComponent&#45;&gt;AppModule -->
<g id="edge3" class="edge">
<title>DeleteHeroDialogComponent&#45;&gt;AppModule</title>
<path fill="none" stroke="black" d="M1404,-122.11C1404,-141.34 1404,-169 1404,-169 1404,-169 933.84,-169 933.84,-169"/>
<polygon fill="black" stroke="black" points="933.84,-165.5 923.84,-169 933.84,-172.5 933.84,-165.5"/>
</g>
<!-- ModifyHeroComponent -->
<g id="node4" class="node">
<title>ModifyHeroComponent</title>
<polygon fill="#ffffb3" stroke="black" points="1293.81,-122 1142.19,-122 1142.19,-86 1293.81,-86 1293.81,-122"/>
<text text-anchor="middle" x="1218" y="-99.8" font-family="Times,serif" font-size="14.00">ModifyHeroComponent</text>
</g>
<!-- ModifyHeroComponent&#45;&gt;AppModule -->
<g id="edge4" class="edge">
<title>ModifyHeroComponent&#45;&gt;AppModule</title>
<path fill="none" stroke="black" d="M1218,-122.02C1218,-139.37 1218,-163 1218,-163 1218,-163 933.88,-163 933.88,-163"/>
<polygon fill="black" stroke="black" points="933.88,-159.5 923.88,-163 933.88,-166.5 933.88,-159.5"/>
</g>
<!-- MosaicHeroComponent -->
<g id="node5" class="node">
<title>MosaicHeroComponent</title>
<polygon fill="#ffffb3" stroke="black" points="1124.02,-122 973.98,-122 973.98,-86 1124.02,-86 1124.02,-122"/>
<text text-anchor="middle" x="1049" y="-99.8" font-family="Times,serif" font-size="14.00">MosaicHeroComponent</text>
</g>
<!-- MosaicHeroComponent&#45;&gt;AppModule -->
<g id="edge5" class="edge">
<title>MosaicHeroComponent&#45;&gt;AppModule</title>
<path fill="none" stroke="black" d="M1049,-122.24C1049,-137.57 1049,-157 1049,-157 1049,-157 933.71,-157 933.71,-157"/>
<polygon fill="black" stroke="black" points="933.71,-153.5 923.71,-157 933.71,-160.5 933.71,-153.5"/>
</g>
<!-- SearchHeroComponent -->
<g id="node6" class="node">
<title>SearchHeroComponent</title>
<polygon fill="#ffffb3" stroke="black" points="955.9,-122 808.1,-122 808.1,-86 955.9,-86 955.9,-122"/>
<text text-anchor="middle" x="882" y="-99.8" font-family="Times,serif" font-size="14.00">SearchHeroComponent</text>
</g>
<!-- SearchHeroComponent&#45;&gt;AppModule -->
<g id="edge6" class="edge">
<title>SearchHeroComponent&#45;&gt;AppModule</title>
<path fill="none" stroke="black" d="M882,-122.11C882,-122.11 882,-140.99 882,-140.99"/>
<polygon fill="black" stroke="black" points="878.5,-140.99 882,-150.99 885.5,-140.99 878.5,-140.99"/>
</g>
<!-- UppercaseDirective -->
<g id="node7" class="node">
<title>UppercaseDirective</title>
<polygon fill="#ffffb3" stroke="black" points="790.65,-122 663.35,-122 663.35,-86 790.65,-86 790.65,-122"/>
<text text-anchor="middle" x="727" y="-99.8" font-family="Times,serif" font-size="14.00">UppercaseDirective</text>
</g>
<!-- UppercaseDirective&#45;&gt;AppModule -->
<g id="edge7" class="edge">
<title>UppercaseDirective&#45;&gt;AppModule</title>
<path fill="none" stroke="black" d="M727,-122.24C727,-137.57 727,-157 727,-157 727,-157 830.05,-157 830.05,-157"/>
<polygon fill="black" stroke="black" points="830.05,-160.5 840.05,-157 830.05,-153.5 830.05,-160.5"/>
</g>
<!-- UppercaseInputDirective -->
<g id="node8" class="node">
<title>UppercaseInputDirective</title>
<polygon fill="#ffffb3" stroke="black" points="645.2,-122 488.8,-122 488.8,-86 645.2,-86 645.2,-122"/>
<text text-anchor="middle" x="567" y="-99.8" font-family="Times,serif" font-size="14.00">UppercaseInputDirective</text>
</g>
<!-- UppercaseInputDirective&#45;&gt;AppModule -->
<g id="edge8" class="edge">
<title>UppercaseInputDirective&#45;&gt;AppModule</title>
<path fill="none" stroke="black" d="M567,-122.02C567,-139.37 567,-163 567,-163 567,-163 830.17,-163 830.17,-163"/>
<polygon fill="black" stroke="black" points="830.17,-166.5 840.17,-163 830.17,-159.5 830.17,-166.5"/>
</g>
<!-- ViewAllHeroesComponent -->
<g id="node9" class="node">
<title>ViewAllHeroesComponent</title>
<polygon fill="#ffffb3" stroke="black" points="470.68,-122 301.32,-122 301.32,-86 470.68,-86 470.68,-122"/>
<text text-anchor="middle" x="386" y="-99.8" font-family="Times,serif" font-size="14.00">ViewAllHeroesComponent</text>
</g>
<!-- ViewAllHeroesComponent&#45;&gt;AppModule -->
<g id="edge9" class="edge">
<title>ViewAllHeroesComponent&#45;&gt;AppModule</title>
<path fill="none" stroke="black" d="M386,-122.11C386,-141.34 386,-169 386,-169 386,-169 830.14,-169 830.14,-169"/>
<polygon fill="black" stroke="black" points="830.14,-172.5 840.14,-169 830.14,-165.5 830.14,-172.5"/>
</g>
<!-- AppComponent  -->
<g id="node13" class="node">
<title>AppComponent </title>
<polygon fill="#80b1d3" stroke="black" points="936.44,-252 827.56,-252 827.56,-216 936.44,-216 936.44,-252"/>
<text text-anchor="middle" x="882" y="-229.8" font-family="Times,serif" font-size="14.00">AppComponent </text>
</g>
<!-- AppModule&#45;&gt;AppComponent  -->
<g id="edge12" class="edge">
<title>AppModule&#45;&gt;AppComponent </title>
<path fill="none" stroke="black" stroke-dasharray="1,5" d="M882,-187.11C882,-187.11 882,-205.99 882,-205.99"/>
<polygon fill="black" stroke="black" points="878.5,-205.99 882,-215.99 885.5,-205.99 878.5,-205.99"/>
</g>
<!-- AppRoutingModule -->
<g id="node11" class="node">
<title>AppRoutingModule</title>
<polygon fill="#8dd3c7" stroke="black" points="277.27,-122 274.27,-126 253.27,-126 250.27,-122 148.73,-122 148.73,-86 277.27,-86 277.27,-122"/>
<text text-anchor="middle" x="213" y="-99.8" font-family="Times,serif" font-size="14.00">AppRoutingModule</text>
</g>
<!-- AppRoutingModule&#45;&gt;AppModule -->
<g id="edge10" class="edge">
<title>AppRoutingModule&#45;&gt;AppModule</title>
<path fill="none" stroke="black" d="M213,-122.28C213,-143.32 213,-175 213,-175 213,-175 830.15,-175 830.15,-175"/>
<polygon fill="black" stroke="black" points="830.15,-178.5 840.15,-175 830.15,-171.5 830.15,-178.5"/>
</g>
<!-- MaterialModule -->
<g id="node12" class="node">
<title>MaterialModule</title>
<polygon fill="#8dd3c7" stroke="black" points="130.47,-122 127.47,-126 106.47,-126 103.47,-122 23.53,-122 23.53,-86 130.47,-86 130.47,-122"/>
<text text-anchor="middle" x="77" y="-99.8" font-family="Times,serif" font-size="14.00">MaterialModule</text>
</g>
<!-- MaterialModule&#45;&gt;AppModule -->
<g id="edge11" class="edge">
<title>MaterialModule&#45;&gt;AppModule</title>
<path fill="none" stroke="black" d="M77,-122.25C77,-145.02 77,-181 77,-181 77,-181 830.13,-181 830.13,-181"/>
<polygon fill="black" stroke="black" points="830.13,-184.5 840.13,-181 830.13,-177.5 830.13,-184.5"/>
</g>
</g>
</svg>
