<?xml version="1.0" encoding="UTF-8" standalone="no"?>
<!DOCTYPE svg PUBLIC "-//W3C//DTD SVG 1.1//EN"
 "http://www.w3.org/Graphics/SVG/1.1/DTD/svg11.dtd">
<!-- Generated by graphviz version 2.47.0 (20210316.0004)
 -->
<!-- Title: dependencies Pages: 1 -->
<svg width="2895pt" height="290pt"
 viewBox="0.00 0.00 2895.00 290.00" xmlns="http://www.w3.org/2000/svg" xmlns:xlink="http://www.w3.org/1999/xlink">
<g id="graph0" class="graph" transform="scale(1 1) rotate(0) translate(4 286)">
<title>dependencies</title>
<polygon fill="white" stroke="transparent" points="-4,4 -4,-286 2891,-286 2891,4 -4,4"/>
<text text-anchor="start" x="1422.51" y="-42.4" font-family="Times-12" font-weight="bold" font-size="14.00">Legend</text>
<polygon fill="#ffffb3" stroke="transparent" points="1209.5,-10 1209.5,-30 1229.5,-30 1229.5,-10 1209.5,-10"/>
<text text-anchor="start" x="1233.13" y="-15.4" font-family="Times-12" font-size="14.00"> &#160;Declarations</text>
<polygon fill="#8dd3c7" stroke="transparent" points="1322.5,-10 1322.5,-30 1342.5,-30 1342.5,-10 1322.5,-10"/>
<text text-anchor="start" x="1346.23" y="-15.4" font-family="Times-12" font-size="14.00"> &#160;Module</text>
<polygon fill="#80b1d3" stroke="transparent" points="1408.5,-10 1408.5,-30 1428.5,-30 1428.5,-10 1408.5,-10"/>
<text text-anchor="start" x="1432.28" y="-15.4" font-family="Times-12" font-size="14.00"> &#160;Bootstrap</text>
<polygon fill="#fdb462" stroke="transparent" points="1505.5,-10 1505.5,-30 1525.5,-30 1525.5,-10 1505.5,-10"/>
<text text-anchor="start" x="1529.17" y="-15.4" font-family="Times-12" font-size="14.00"> &#160;Providers</text>
<polygon fill="#fb8072" stroke="transparent" points="1601.5,-10 1601.5,-30 1621.5,-30 1621.5,-10 1601.5,-10"/>
<text text-anchor="start" x="1625.23" y="-15.4" font-family="Times-12" font-size="14.00"> &#160;Exports</text>
<g id="clust1" class="cluster">
<title>cluster_AppModule</title>
<polygon fill="none" stroke="black" stroke-dasharray="1,5" points="8,-70 8,-274 1787,-274 1787,-70 8,-70"/>
</g>
<g id="clust2" class="cluster">
<title>cluster_AppModule_declarations</title>
<polygon fill="none" stroke="black" points="16,-78 16,-130 1502,-130 1502,-78 16,-78"/>
</g>
<g id="clust12" class="cluster">
<title>cluster_AppModule_imports</title>
<polygon fill="none" stroke="black" points="1510,-78 1510,-130 1779,-130 1779,-78 1510,-78"/>
</g>
<g id="clust14" class="cluster">
<title>cluster_AppModule_bootstrap</title>
<polygon fill="none" stroke="black" points="879,-214 879,-266 1003,-266 1003,-214 879,-214"/>
</g>
<g id="clust22" class="cluster">
<title>cluster_MaterialModule</title>
<polygon fill="none" stroke="black" stroke-dasharray="1,5" points="1795,-138 1795,-206 2879,-206 2879,-138 1795,-138"/>
</g>
<g id="clust24" class="cluster">
<title>cluster_MaterialModule_imports</title>
<polygon fill="none" stroke="black" points="2348,-146 2348,-198 2871,-198 2871,-146 2348,-146"/>
</g>
<g id="clust25" class="cluster">
<title>cluster_MaterialModule_exports</title>
<polygon fill="none" stroke="black" points="1803,-146 1803,-198 2340,-198 2340,-146 1803,-146"/>
</g>
<!-- AddHeroComponent -->
<g id="node1" class="node">
<title>AddHeroComponent</title>
<polygon fill="#ffffb3" stroke="black" points="1493.92,-122 1360.08,-122 1360.08,-86 1493.92,-86 1493.92,-122"/>
<text text-anchor="middle" x="1427" y="-99.8" font-family="Times,serif" font-size="14.00">AddHeroComponent</text>
</g>
<!-- AppModule -->
<g id="node10" class="node">
<title>AppModule</title>
<polygon fill="#8dd3c7" stroke="black" points="982.66,-190 979.66,-194 958.66,-194 955.66,-190 899.34,-190 899.34,-154 982.66,-154 982.66,-190"/>
<text text-anchor="middle" x="941" y="-167.8" font-family="Times,serif" font-size="14.00">AppModule</text>
</g>
<!-- AddHeroComponent&#45;&gt;AppModule -->
<g id="edge1" class="edge">
<title>AddHeroComponent&#45;&gt;AppModule</title>
<path fill="none" stroke="black" d="M1427,-122.03C1427,-141.58 1427,-170 1427,-170 1427,-170 992.86,-170 992.86,-170"/>
<polygon fill="black" stroke="black" points="992.86,-166.5 982.86,-170 992.86,-173.5 992.86,-166.5"/>
</g>
<!-- AppComponent -->
<g id="node2" class="node">
<title>AppComponent</title>
<polygon fill="#ffffb3" stroke="black" points="1342.94,-122 1237.06,-122 1237.06,-86 1342.94,-86 1342.94,-122"/>
<text text-anchor="middle" x="1290" y="-99.8" font-family="Times,serif" font-size="14.00">AppComponent</text>
</g>
<!-- AppComponent&#45;&gt;AppModule -->
<g id="edge2" class="edge">
<title>AppComponent&#45;&gt;AppModule</title>
<path fill="none" stroke="black" d="M1290,-122.3C1290,-140.27 1290,-165 1290,-165 1290,-165 992.75,-165 992.75,-165"/>
<polygon fill="black" stroke="black" points="992.75,-161.5 982.75,-165 992.75,-168.5 992.75,-161.5"/>
</g>
<!-- DeleteHeroDialogComponent -->
<g id="node3" class="node">
<title>DeleteHeroDialogComponent</title>
<polygon fill="#ffffb3" stroke="black" points="1218.95,-122 1035.05,-122 1035.05,-86 1218.95,-86 1218.95,-122"/>
<text text-anchor="middle" x="1127" y="-99.8" font-family="Times,serif" font-size="14.00">DeleteHeroDialogComponent</text>
</g>
<!-- DeleteHeroDialogComponent&#45;&gt;AppModule -->
<g id="edge3" class="edge">
<title>DeleteHeroDialogComponent&#45;&gt;AppModule</title>
<path fill="none" stroke="black" d="M1127,-122.03C1127,-138.4 1127,-160 1127,-160 1127,-160 992.74,-160 992.74,-160"/>
<polygon fill="black" stroke="black" points="992.74,-156.5 982.74,-160 992.74,-163.5 992.74,-156.5"/>
</g>
<!-- ModifyHeroComponent -->
<g id="node4" class="node">
<title>ModifyHeroComponent</title>
<polygon fill="#ffffb3" stroke="black" points="1016.81,-122 865.19,-122 865.19,-86 1016.81,-86 1016.81,-122"/>
<text text-anchor="middle" x="941" y="-99.8" font-family="Times,serif" font-size="14.00">ModifyHeroComponent</text>
</g>
<!-- ModifyHeroComponent&#45;&gt;AppModule -->
<g id="edge4" class="edge">
<title>ModifyHeroComponent&#45;&gt;AppModule</title>
<path fill="none" stroke="black" d="M941,-122.22C941,-122.22 941,-143.73 941,-143.73"/>
<polygon fill="black" stroke="black" points="937.5,-143.73 941,-153.73 944.5,-143.73 937.5,-143.73"/>
</g>
<!-- MosaicHeroComponent -->
<g id="node5" class="node">
<title>MosaicHeroComponent</title>
<polygon fill="#ffffb3" stroke="black" points="847.02,-122 696.98,-122 696.98,-86 847.02,-86 847.02,-122"/>
<text text-anchor="middle" x="772" y="-99.8" font-family="Times,serif" font-size="14.00">MosaicHeroComponent</text>
</g>
<!-- MosaicHeroComponent&#45;&gt;AppModule -->
<g id="edge5" class="edge">
<title>MosaicHeroComponent&#45;&gt;AppModule</title>
<path fill="none" stroke="black" d="M772,-122.03C772,-138.4 772,-160 772,-160 772,-160 889.22,-160 889.22,-160"/>
<polygon fill="black" stroke="black" points="889.22,-163.5 899.22,-160 889.22,-156.5 889.22,-163.5"/>
</g>
<!-- SearchHeroComponent -->
<g id="node6" class="node">
<title>SearchHeroComponent</title>
<polygon fill="#ffffb3" stroke="black" points="678.9,-122 531.1,-122 531.1,-86 678.9,-86 678.9,-122"/>
<text text-anchor="middle" x="605" y="-99.8" font-family="Times,serif" font-size="14.00">SearchHeroComponent</text>
</g>
<!-- SearchHeroComponent&#45;&gt;AppModule -->
<g id="edge6" class="edge">
<title>SearchHeroComponent&#45;&gt;AppModule</title>
<path fill="none" stroke="black" d="M605,-122.27C605,-140.56 605,-166 605,-166 605,-166 889.12,-166 889.12,-166"/>
<polygon fill="black" stroke="black" points="889.12,-169.5 899.12,-166 889.12,-162.5 889.12,-169.5"/>
</g>
<!-- UppercaseDirective -->
<g id="node7" class="node">
<title>UppercaseDirective</title>
<polygon fill="#ffffb3" stroke="black" points="513.65,-122 386.35,-122 386.35,-86 513.65,-86 513.65,-122"/>
<text text-anchor="middle" x="450" y="-99.8" font-family="Times,serif" font-size="14.00">UppercaseDirective</text>
</g>
<!-- UppercaseDirective&#45;&gt;AppModule -->
<g id="edge7" class="edge">
<title>UppercaseDirective&#45;&gt;AppModule</title>
<path fill="none" stroke="black" d="M450,-122.22C450,-142.37 450,-172 450,-172 450,-172 889.14,-172 889.14,-172"/>
<polygon fill="black" stroke="black" points="889.14,-175.5 899.14,-172 889.14,-168.5 889.14,-175.5"/>
</g>
<!-- UppercaseInputDirective -->
<g id="node8" class="node">
<title>UppercaseInputDirective</title>
<polygon fill="#ffffb3" stroke="black" points="368.2,-122 211.8,-122 211.8,-86 368.2,-86 368.2,-122"/>
<text text-anchor="middle" x="290" y="-99.8" font-family="Times,serif" font-size="14.00">UppercaseInputDirective</text>
</g>
<!-- UppercaseInputDirective&#45;&gt;AppModule -->
<g id="edge8" class="edge">
<title>UppercaseInputDirective&#45;&gt;AppModule</title>
<path fill="none" stroke="black" d="M290,-122.29C290,-144.21 290,-178 290,-178 290,-178 889.29,-178 889.29,-178"/>
<polygon fill="black" stroke="black" points="889.29,-181.5 899.29,-178 889.29,-174.5 889.29,-181.5"/>
</g>
<!-- ViewAllHeroesComponent -->
<g id="node9" class="node">
<title>ViewAllHeroesComponent</title>
<polygon fill="#ffffb3" stroke="black" points="193.68,-122 24.32,-122 24.32,-86 193.68,-86 193.68,-122"/>
<text text-anchor="middle" x="109" y="-99.8" font-family="Times,serif" font-size="14.00">ViewAllHeroesComponent</text>
</g>
<!-- ViewAllHeroesComponent&#45;&gt;AppModule -->
<g id="edge9" class="edge">
<title>ViewAllHeroesComponent&#45;&gt;AppModule</title>
<path fill="none" stroke="black" d="M109,-122.15C109,-145.76 109,-184 109,-184 109,-184 889.17,-184 889.17,-184"/>
<polygon fill="black" stroke="black" points="889.17,-187.5 899.17,-184 889.17,-180.5 889.17,-187.5"/>
</g>
<!-- AppComponent  -->
<g id="node13" class="node">
<title>AppComponent </title>
<polygon fill="#80b1d3" stroke="black" points="995.44,-258 886.56,-258 886.56,-222 995.44,-222 995.44,-258"/>
<text text-anchor="middle" x="941" y="-235.8" font-family="Times,serif" font-size="14.00">AppComponent </text>
</g>
<!-- AppModule&#45;&gt;AppComponent  -->
<g id="edge12" class="edge">
<title>AppModule&#45;&gt;AppComponent </title>
<path fill="none" stroke="black" stroke-dasharray="1,5" d="M941,-190.22C941,-190.22 941,-211.73 941,-211.73"/>
<polygon fill="black" stroke="black" points="937.5,-211.73 941,-221.73 944.5,-211.73 937.5,-211.73"/>
</g>
<!-- AppRoutingModule -->
<g id="node11" class="node">
<title>AppRoutingModule</title>
<polygon fill="#8dd3c7" stroke="black" points="1646.27,-122 1643.27,-126 1622.27,-126 1619.27,-122 1517.73,-122 1517.73,-86 1646.27,-86 1646.27,-122"/>
<text text-anchor="middle" x="1582" y="-99.8" font-family="Times,serif" font-size="14.00">AppRoutingModule</text>
</g>
<!-- AppRoutingModule&#45;&gt;AppModule -->
<g id="edge10" class="edge">
<title>AppRoutingModule&#45;&gt;AppModule</title>
<path fill="none" stroke="black" d="M1582,-122.28C1582,-143.32 1582,-175 1582,-175 1582,-175 993.06,-175 993.06,-175"/>
<polygon fill="black" stroke="black" points="993.06,-171.5 983.06,-175 993.06,-178.5 993.06,-171.5"/>
</g>
<!-- MaterialModule -->
<g id="node12" class="node">
<title>MaterialModule</title>
<polygon fill="#8dd3c7" stroke="black" points="1771.47,-122 1768.47,-126 1747.47,-126 1744.47,-122 1664.53,-122 1664.53,-86 1771.47,-86 1771.47,-122"/>
<text text-anchor="middle" x="1718" y="-99.8" font-family="Times,serif" font-size="14.00">MaterialModule</text>
</g>
<!-- MaterialModule&#45;&gt;AppModule -->
<g id="edge11" class="edge">
<title>MaterialModule&#45;&gt;AppModule</title>
<path fill="none" stroke="black" d="M1700.17,-122.01C1700.17,-144.49 1700.17,-180 1700.17,-180 1700.17,-180 992.9,-180 992.9,-180"/>
<polygon fill="black" stroke="black" points="992.9,-176.5 982.9,-180 992.9,-183.5 992.9,-176.5"/>
</g>
<!-- MatDialogActions  -->
<g id="node18" class="node">
<title>MatDialogActions </title>
<polygon fill="#fb8072" stroke="black" points="2331.7,-190 2208.3,-190 2208.3,-154 2331.7,-154 2331.7,-190"/>
<text text-anchor="middle" x="2270" y="-167.8" font-family="Times,serif" font-size="14.00">MatDialogActions </text>
</g>
<!-- MaterialModule&#45;&gt;MatDialogActions  -->
<g id="edge17" class="edge">
<title>MaterialModule&#45;&gt;MatDialogActions </title>
<path fill="none" stroke="black" stroke-dasharray="5,2" d="M1771.68,-109C1910.4,-109 2270,-109 2270,-109 2270,-109 2270,-143.78 2270,-143.78"/>
<polygon fill="black" stroke="black" points="2266.5,-143.78 2270,-153.78 2273.5,-143.78 2266.5,-143.78"/>
</g>
<!-- MatDialogClose  -->
<g id="node19" class="node">
<title>MatDialogClose </title>
<polygon fill="#fb8072" stroke="black" points="2190.04,-190 2077.96,-190 2077.96,-154 2190.04,-154 2190.04,-190"/>
<text text-anchor="middle" x="2134" y="-167.8" font-family="Times,serif" font-size="14.00">MatDialogClose </text>
</g>
<!-- MaterialModule&#45;&gt;MatDialogClose  -->
<g id="edge18" class="edge">
<title>MaterialModule&#45;&gt;MatDialogClose </title>
<path fill="none" stroke="black" stroke-dasharray="5,2" d="M1771.53,-113C1883.89,-113 2134,-113 2134,-113 2134,-113 2134,-143.98 2134,-143.98"/>
<polygon fill="black" stroke="black" points="2130.5,-143.98 2134,-153.98 2137.5,-143.98 2130.5,-143.98"/>
</g>
<!-- MatDialogContent  -->
<g id="node20" class="node">
<title>MatDialogContent </title>
<polygon fill="#fb8072" stroke="black" points="2060.49,-190 1935.51,-190 1935.51,-154 2060.49,-154 2060.49,-190"/>
<text text-anchor="middle" x="1998" y="-167.8" font-family="Times,serif" font-size="14.00">MatDialogContent </text>
</g>
<!-- MaterialModule&#45;&gt;MatDialogContent  -->
<g id="edge19" class="edge">
<title>MaterialModule&#45;&gt;MatDialogContent </title>
<path fill="none" stroke="black" stroke-dasharray="5,2" d="M1771.66,-118C1852.96,-118 1998,-118 1998,-118 1998,-118 1998,-143.72 1998,-143.72"/>
<polygon fill="black" stroke="black" points="1994.5,-143.72 1998,-153.72 2001.5,-143.72 1994.5,-143.72"/>
</g>
<!-- MatDialogTitle  -->
<g id="node21" class="node">
<title>MatDialogTitle </title>
<polygon fill="#fb8072" stroke="black" points="1917.09,-190 1810.91,-190 1810.91,-154 1917.09,-154 1917.09,-190"/>
<text text-anchor="middle" x="1864" y="-167.8" font-family="Times,serif" font-size="14.00">MatDialogTitle </text>
</g>
<!-- MaterialModule&#45;&gt;MatDialogTitle  -->
<g id="edge20" class="edge">
<title>MaterialModule&#45;&gt;MatDialogTitle </title>
<path fill="none" stroke="black" stroke-dasharray="5,2" d="M1735.83,-122.38C1735.83,-146.28 1735.83,-185 1735.83,-185 1735.83,-185 1800.76,-185 1800.76,-185"/>
<polygon fill="black" stroke="black" points="1800.76,-188.5 1810.76,-185 1800.76,-181.5 1800.76,-188.5"/>
</g>
<!-- MatDialogActions -->
<g id="node14" class="node">
<title>MatDialogActions</title>
<polygon fill="#8dd3c7" stroke="black" points="2863.2,-190 2860.2,-194 2839.2,-194 2836.2,-190 2742.8,-190 2742.8,-154 2863.2,-154 2863.2,-190"/>
<text text-anchor="middle" x="2803" y="-167.8" font-family="Times,serif" font-size="14.00">MatDialogActions</text>
</g>
<!-- MatDialogActions&#45;&gt;MaterialModule -->
<g id="edge13" class="edge">
<title>MatDialogActions&#45;&gt;MaterialModule</title>
<path fill="none" stroke="black" d="M2803,-153.62C2803,-129.72 2803,-91 2803,-91 2803,-91 1781.81,-91 1781.81,-91"/>
<polygon fill="black" stroke="black" points="1781.81,-87.5 1771.81,-91 1781.81,-94.5 1781.81,-87.5"/>
</g>
<!-- MatDialogClose -->
<g id="node15" class="node">
<title>MatDialogClose</title>
<polygon fill="#8dd3c7" stroke="black" points="2725.04,-190 2722.04,-194 2701.04,-194 2698.04,-190 2616.96,-190 2616.96,-154 2725.04,-154 2725.04,-190"/>
<text text-anchor="middle" x="2671" y="-167.8" font-family="Times,serif" font-size="14.00">MatDialogClose</text>
</g>
<!-- MatDialogClose&#45;&gt;MaterialModule -->
<g id="edge14" class="edge">
<title>MatDialogClose&#45;&gt;MaterialModule</title>
<path fill="none" stroke="black" d="M2671,-153.75C2671,-130.98 2671,-95 2671,-95 2671,-95 1781.62,-95 1781.62,-95"/>
<polygon fill="black" stroke="black" points="1781.62,-91.5 1771.62,-95 1781.62,-98.5 1781.62,-91.5"/>
</g>
<!-- MatDialogContent -->
<g id="node16" class="node">
<title>MatDialogContent</title>
<polygon fill="#8dd3c7" stroke="black" points="2598.48,-190 2595.48,-194 2574.48,-194 2571.48,-190 2477.52,-190 2477.52,-154 2598.48,-154 2598.48,-190"/>
<text text-anchor="middle" x="2538" y="-167.8" font-family="Times,serif" font-size="14.00">MatDialogContent</text>
</g>
<!-- MatDialogContent&#45;&gt;MaterialModule -->
<g id="edge15" class="edge">
<title>MatDialogContent&#45;&gt;MaterialModule</title>
<path fill="none" stroke="black" d="M2538,-153.83C2538,-132.5 2538,-100 2538,-100 2538,-100 1781.49,-100 1781.49,-100"/>
<polygon fill="black" stroke="black" points="1781.49,-96.5 1771.49,-100 1781.49,-103.5 1781.49,-96.5"/>
</g>
<!-- MatDialogTitle -->
<g id="node17" class="node">
<title>MatDialogTitle</title>
<polygon fill="#8dd3c7" stroke="black" points="2459.59,-190 2456.59,-194 2435.59,-194 2432.59,-190 2356.41,-190 2356.41,-154 2459.59,-154 2459.59,-190"/>
<text text-anchor="middle" x="2408" y="-167.8" font-family="Times,serif" font-size="14.00">MatDialogTitle</text>
</g>
<!-- MatDialogTitle&#45;&gt;MaterialModule -->
<g id="edge16" class="edge">
<title>MatDialogTitle&#45;&gt;MaterialModule</title>
<path fill="none" stroke="black" d="M2408,-153.78C2408,-133.63 2408,-104 2408,-104 2408,-104 1781.57,-104 1781.57,-104"/>
<polygon fill="black" stroke="black" points="1781.57,-100.5 1771.57,-104 1781.57,-107.5 1781.57,-100.5"/>
</g>
</g>
</svg>
